<svg version="1.2" xmlns="http://www.w3.org/2000/svg" viewBox="0 0 237 235" width="237" height="235">
	<style>
		.s0 { opacity: .97;fill: #ffffff } 
	</style>
	<path id="Path 0" fill-rule="evenodd" class="s0" d="m123.4 4c2.38 0.01 5.34 1.16 7.36 2.87 1.85 1.58 4.86 5.3 6.68 8.28 1.82 2.98 7.06 9.02 11.65 13.42 4.59 4.41 13.86 12.62 20.61 18.24 6.74 5.63 14.7 12.24 17.67 14.69 2.98 2.44 10.62 9.41 17 15.48 6.37 6.08 13.95 14.08 16.85 17.79 2.89 3.71 6.94 10.33 9 14.72 2.76 5.88 3.93 10.54 4.49 17.78 0.45 5.76 0.2 12.35-0.61 15.94-0.76 3.38-2.86 9.87-4.68 14.44-1.82 4.56-3.72 8.29-4.22 8.28-0.51-0.02-1.2 1.35-1.54 3.04-0.33 1.69-3.15 6.24-6.26 10.12-3.11 3.88-8.61 9.81-12.22 13.18-3.61 3.38-7.53 6.96-8.7 7.97-1.18 1.02-4.93 3.64-8.33 5.84-3.4 2.2-6.88 3.99-7.72 3.99-0.84-0.01-1.52 0.4-1.5 0.91 0.02 0.5-2.6 1.69-5.82 2.64-3.23 0.95-6.58 2.33-7.45 3.07-0.97 0.81-1.55 0.86-1.48 0.11 0.06-0.71-0.56-0.63-1.48 0.18-0.87 0.78-4.62 2.34-8.33 3.48-3.71 1.13-10.34 2.84-14.72 3.8-4.89 1.07-15.08 1.74-26.37 1.75-10.12 0-21.71-0.6-25.75-1.34-4.05-0.74-7.92-1.78-8.59-2.31-0.67-0.52-3.71-1.31-6.75-1.73-3.03-0.43-10.76-3.44-17.17-6.7-6.4-3.26-14.13-7.6-17.17-9.65-3.03-2.05-9.27-7.52-13.86-12.16-5.02-5.08-10.51-12.33-13.79-18.24-4.4-7.92-5.82-12.07-7.37-21.47-1.49-9.11-1.65-13.79-0.7-21.46 0.67-5.4 2.08-11.47 3.13-13.49 1.05-2.03 1.94-4.23 1.96-4.91 0.02-0.67 1.4-3.02 3.07-5.21 1.67-2.19 3.03-4.54 3.03-5.21 0-0.68 6.21-7.49 13.8-15.14 7.59-7.65 15.63-15.24 17.88-16.86 2.24-1.63 7.52-5.72 11.73-9.09 4.2-3.37 9.2-7.24 11.09-8.59 1.89-1.34 7.65-5.82 12.8-9.93 5.15-4.12 12.42-10.46 16.16-14.1 3.74-3.65 9.16-9.76 12.04-13.59 2.88-3.83 6.44-7.84 7.91-8.9 1.48-1.07 4.48-1.94 6.67-1.93zm-1.53 85.36c-2.7 1.34-7.46 4.07-10.58 6.07-3.11 2-7.82 6.11-10.45 9.15-2.63 3.04-6.38 7.73-8.34 10.42l-3.54 4.91c-4.99-5.7-6.97-8.19-7.62-9.2-0.64-1.01-4.62-5.01-8.84-8.89-6.8-6.26-8.25-7.05-12.88-7.07-2.86-0.01-7.14 0.64-9.5 1.45-2.36 0.81-5.02 2.2-5.92 3.08-0.89 0.89-2.13 1.62-2.76 1.62-0.62 0-3.1 2.07-5.5 4.6-2.4 2.53-6.02 8.19-8.04 12.57-2.18 4.71-3.89 10.73-4.19 14.72-0.28 3.71 0.1 8.68 0.84 11.04 0.73 2.36 2.79 7.57 4.56 11.57 1.97 4.45 6.53 10.9 11.72 16.56 4.67 5.1 11.29 11.13 14.71 13.39 3.43 2.27 9.82 5.78 14.2 7.81 4.39 2.03 9.08 3.95 10.43 4.28 1.35 0.33 7.14 0.88 12.87 1.23 9.35 0.58 11.32 0.29 19.01-2.73 4.73-1.86 13-5.81 18.4-8.77 5.4-2.97 11.28-6.62 13.07-8.12 1.8-1.5 5.92-4.93 9.16-7.63 3.23-2.7 9.11-9.32 13.06-14.72 3.94-5.39 8.8-13.12 10.79-17.17 2.69-5.46 3.82-9.88 4.4-17.17 0.52-6.64 0.26-11.39-0.81-14.71-0.88-2.7-3.02-6.69-4.78-8.87-1.75-2.17-6.5-5.97-10.55-8.43-7.04-4.29-7.91-4.5-20.23-4.9-7.09-0.22-13.99 0.01-15.34 0.53-1.34 0.51-4.66 2.03-7.35 3.38zm11.03 26.33c1.35-0.07 3.7 0.99 5.22 2.36 1.51 1.36 3.09 4.27 3.5 6.46 0.45 2.45 0.04 5.4-1.07 7.67-0.99 2.02-3.26 4.64-5.03 5.82-1.78 1.18-4.88 2.15-6.91 2.15-2.29 0-4.84-1.16-6.74-3.07-1.69-1.69-3.07-4.31-3.07-5.82-0.01-1.52 1.24-5.11 2.76-7.98 1.54-2.92 4.11-5.71 5.83-6.34 1.68-0.62 4.17-1.18 5.51-1.25zm-78.59 1.17c4.24 0 5.62 0.71 9.02 4.59q4.01 4.59 3.96 8.27c-0.03 2.1-1.23 4.88-2.79 6.47-2.09 2.14-4.09 2.79-8.56 2.76-4.95-0.02-6.28-0.58-8.89-3.71-1.87-2.24-3.16-5.44-3.3-8.2-0.17-3.33 0.53-5.26 2.66-7.36 2.08-2.03 4.31-2.83 7.9-2.82z"/>
</svg>