<svg version="1.2" xmlns="http://www.w3.org/2000/svg" viewBox="0 0 237 235" width="237" height="235">
	<style>
		.s0 { fill: #ffffff } 
	</style>
	<path id="Path 0" fill-rule="evenodd" class="s0" d="m121.56 4.12c8.51 0.34 16.23 1.49 20.91 3.11 4.08 1.42 10.15 3.96 13.48 5.66 3.34 1.69 9.41 5.64 13.49 8.76 4.08 3.13 9.96 8.96 13.07 12.96 3.1 4 7.49 10.92 9.75 15.37 2.26 4.45 5.1 12.64 6.33 18.21 1.56 7.09 2.04 13.94 1.59 22.93-0.41 8.36-1.68 15.85-3.66 21.57-1.67 4.83-5.26 12.4-7.98 16.84-2.71 4.44-7.97 11.08-11.68 14.76-3.71 3.68-10.39 9.02-14.84 11.88-4.45 2.86-12.94 6.77-18.88 8.68-8.77 2.83-14.19 3.59-29 4.05-10.01 0.32-19.57 0.85-21.24 1.18-2.7 0.54-3.03 1.41-3.03 8.03 0 4.08 0.6 7.42 1.35 7.42 0.81 0 1.21 4.22 1.01 10.65-0.3 9.52-0.79 11.28-4.57 16.52-2.62 3.64-6.99 7.3-11.47 9.62-4.53 2.35-9.24 3.72-12.62 3.68-2.97-0.04-7.83-1.19-10.79-2.55-2.97-1.36-7.15-4.23-9.3-6.37-2.15-2.15-5.02-6.33-6.38-9.3-1.36-2.97-2.48-7.37-2.5-9.78-0.02-2.41 0.58-4.69 1.32-5.06 0.74-0.37 1.35-1.88 1.35-3.37 0-1.48-0.61-2.7-1.35-2.7-0.83 0-1.35-6.29-1.35-16.18 0-8.9 0.76-18.94 1.69-22.32 1.37-4.98 1.35-6.31-0.07-7.08-1.39-0.75-1.64-8.2-1.21-36.01 0.49-31.78 0.82-35.89 3.51-43.84 1.64-4.82 4.89-12.1 7.21-16.18 2.33-4.08 7.61-11 11.73-15.38 4.12-4.37 11.13-10.32 15.58-13.2 4.45-2.88 11.43-6.5 15.51-8.02 4.08-1.53 10.15-3.3 13.49-3.93 3.33-0.63 12.13-0.91 19.55-0.61zm-20.69 64.48c-1.74 1.63-4.12 4.78-5.29 7.01-1.31 2.5-2.42 9.32-2.9 17.87-0.44 7.76-1.38 13.85-2.14 13.87-0.74 0.02-0.13 0.94 1.35 2.04 1.88 1.4 6.06 2 13.82 1.98 6.12-0.01 14.01-0.63 17.54-1.36 4.52-0.94 7.91-2.83 11.51-6.41 2.8-2.78 5.76-7.19 6.58-9.79 0.81-2.59 1.12-7.45 0.68-10.79-0.43-3.33-2.31-8.19-4.16-10.79-1.85-2.59-5.22-5.78-7.47-7.08-2.26-1.3-6.99-2.67-10.51-3.06q-6.41-0.7-11.13 1.43c-2.6 1.17-6.14 3.46-7.88 5.08z"/>
</svg>