<svg version="1.2" xmlns="http://www.w3.org/2000/svg" viewBox="0 0 237 235" width="237" height="235">
	<style>
		.s0 { opacity: .98;fill: #ffffff } 
	</style>
	<path id="Path 0" fill-rule="evenodd" class="s0" d="m169.75 4.07c3.44-0.06 8.85 2.13 28.5 11.54 13.34 6.38 25.31 12.57 26.6 13.75 1.28 1.18 2.97 3.38 3.75 4.89 1.17 2.29 1.4 15.81 1.46 159.25l-2.28 3.5c-1.93 2.97-6.17 5.43-27.78 16.19-21.14 10.52-26.27 12.69-30 12.71-2.47 0.02-5.48-0.52-6.67-1.19-1.2-0.66-16.49-14.26-33.98-30.21-17.49-15.95-34.06-31.06-36.83-33.59-2.76-2.52-8.51-7.81-12.77-11.75-7.73-7.14-7.76-7.16-10.18-5.41-1.34 0.96-10.56 7.94-20.5 15.5-13.93 10.6-18.76 13.75-21.07 13.75-1.99 0-4.6-1.29-7.75-3.85-2.61-2.12-6.89-6.17-9.5-9-3.03-3.28-4.75-6.06-4.75-7.65 0-1.37 0.45-3.4 1-4.5 0.55-1.1 8.54-8.82 17.75-17.16 9.21-8.34 16.75-15.45 16.75-15.8 0-0.34-7.8-7.81-17.34-16.58-11.11-10.24-17.52-16.86-17.85-18.46-0.29-1.37-0.25-3.51 0.08-4.75 0.34-1.24 3.81-5.29 7.71-9 3.91-3.71 8.07-7.3 9.25-7.96 1.18-0.67 3.27-1.23 4.65-1.25 1.37-0.02 3.73 0.76 5.24 1.72 1.5 0.95 10.84 7.93 38.76 29.24l19.32-17.75c10.62-9.76 30.91-28.32 45.08-41.25 14.17-12.92 26.52-23.81 27.43-24.18 0.92-0.37 3.58-0.71 5.92-0.75zm-61.45 110.76c-0.12 0.37 3.48 3.43 8 6.81 4.51 3.38 19 14.3 32.2 24.26 13.2 9.97 24.13 18.01 24.3 17.86 0.16-0.14 0.39-22.42 0.5-49.51 0.11-27.09 0.16-49.25 0.12-49.25-0.05 0-14.67 11.06-32.5 24.58-17.83 13.52-32.51 24.88-32.62 25.25z"/>
</svg>